<svg width="114" height="27" viewBox="0 0 114 27" fill="none" xmlns="http://www.w3.org/2000/svg">
<path d="M10.5046 26.36C8.15264 26.36 6.13664 25.94 4.45664 25.1C2.80064 24.236 1.37264 22.988 0.172641 21.356L3.55664 17.54C4.73264 19.172 5.89664 20.288 7.04864 20.888C8.22464 21.464 9.48464 21.752 10.8286 21.752C11.5726 21.752 12.2326 21.644 12.8086 21.428C13.4086 21.212 13.8766 20.912 14.2126 20.528C14.5726 20.144 14.7526 19.7 14.7526 19.196C14.7526 18.812 14.6686 18.464 14.5006 18.152C14.3326 17.816 14.0926 17.528 13.7806 17.288C13.4686 17.024 13.0966 16.796 12.6646 16.604C12.2326 16.388 11.7526 16.208 11.2246 16.064C10.6966 15.92 10.1206 15.788 9.49664 15.668C8.15264 15.38 6.97664 15.008 5.96864 14.552C4.96064 14.096 4.12064 13.544 3.44864 12.896C2.77664 12.248 2.27264 11.504 1.93664 10.664C1.62464 9.8 1.46864 8.84 1.46864 7.784C1.46864 6.296 1.88864 5 2.72864 3.896C3.56864 2.768 4.68464 1.892 6.07664 1.268C7.46864 0.619998 9.00464 0.295998 10.6846 0.295998C12.9646 0.295998 14.8366 0.679998 16.3006 1.448C17.7886 2.216 18.9766 3.296 19.8646 4.688L16.4086 8.072C15.6646 7.04 14.8126 6.26 13.8526 5.732C12.8926 5.204 11.8606 4.94 10.7566 4.94C9.98864 4.94 9.30464 5.048 8.70464 5.264C8.12864 5.456 7.68464 5.756 7.37264 6.164C7.06064 6.548 6.90464 7.004 6.90464 7.532C6.90464 7.964 7.01264 8.348 7.22864 8.684C7.44464 9.02 7.74464 9.32 8.12864 9.584C8.53664 9.824 9.02864 10.04 9.60464 10.232C10.1806 10.424 10.8166 10.58 11.5126 10.7C12.8326 10.964 14.0206 11.324 15.0766 11.78C16.1326 12.212 17.0326 12.74 17.7766 13.364C18.5446 13.988 19.1326 14.708 19.5406 15.524C19.9486 16.34 20.1526 17.252 20.1526 18.26C20.1526 19.964 19.7446 21.416 18.9286 22.616C18.1126 23.816 16.9846 24.74 15.5446 25.388C14.1046 26.036 12.4246 26.36 10.5046 26.36ZM32.6036 26.36C30.7796 26.36 29.1476 25.928 27.7076 25.064C26.2676 24.2 25.1276 23.024 24.2876 21.536C23.4716 20.024 23.0636 18.344 23.0636 16.496C23.0636 14.6 23.4716 12.908 24.2876 11.42C25.1276 9.908 26.2676 8.72 27.7076 7.856C29.1476 6.992 30.7796 6.56 32.6036 6.56C34.3076 6.56 35.8556 6.884 37.2476 7.532C38.6636 8.156 39.7676 9.02 40.5596 10.124L37.7876 13.508C37.4516 13.052 37.0316 12.632 36.5276 12.248C36.0236 11.864 35.4716 11.564 34.8716 11.348C34.2956 11.132 33.6956 11.024 33.0716 11.024C32.0876 11.024 31.2116 11.264 30.4436 11.744C29.6756 12.2 29.0756 12.848 28.6436 13.688C28.2116 14.504 27.9956 15.428 27.9956 16.46C27.9956 17.468 28.2236 18.38 28.6796 19.196C29.1356 20.012 29.7476 20.66 30.5156 21.14C31.2836 21.62 32.1356 21.86 33.0716 21.86C33.6956 21.86 34.2836 21.776 34.8356 21.608C35.4116 21.416 35.9396 21.14 36.4196 20.78C36.8996 20.42 37.3556 20 37.7876 19.52L40.5596 22.904C39.7676 23.936 38.6396 24.776 37.1756 25.424C35.7356 26.048 34.2116 26.36 32.6036 26.36ZM52.6553 26.36C50.7353 26.36 49.0073 25.94 47.4713 25.1C45.9593 24.236 44.7593 23.06 43.8713 21.572C43.0073 20.084 42.5753 18.392 42.5753 16.496C42.5753 14.552 43.0073 12.836 43.8713 11.348C44.7593 9.86 45.9593 8.696 47.4713 7.856C49.0073 6.992 50.7353 6.56 52.6553 6.56C54.5993 6.56 56.3273 6.992 57.8393 7.856C59.3513 8.696 60.5393 9.86 61.4033 11.348C62.2913 12.836 62.7353 14.552 62.7353 16.496C62.7353 18.392 62.2913 20.084 61.4033 21.572C60.5393 23.06 59.3513 24.236 57.8393 25.1C56.3273 25.94 54.5993 26.36 52.6553 26.36ZM52.6553 21.932C53.6153 21.932 54.4553 21.692 55.1753 21.212C55.9193 20.732 56.4953 20.084 56.9033 19.268C57.3353 18.452 57.5393 17.528 57.5153 16.496C57.5393 15.416 57.3353 14.468 56.9033 13.652C56.4953 12.812 55.9193 12.164 55.1753 11.708C54.4553 11.228 53.6153 10.988 52.6553 10.988C51.7193 10.988 50.8793 11.228 50.1353 11.708C49.3913 12.188 48.8033 12.836 48.3713 13.652C47.9393 14.468 47.7353 15.416 47.7593 16.496C47.7353 17.528 47.9393 18.452 48.3713 19.268C48.8033 20.084 49.3913 20.732 50.1353 21.212C50.8793 21.692 51.7193 21.932 52.6553 21.932ZM66.5814 26V6.956H71.5134L71.6934 13.076L70.8294 11.78C71.1414 10.82 71.6094 9.944 72.2334 9.152C72.8814 8.36 73.6374 7.736 74.5014 7.28C75.3894 6.8 76.3134 6.56 77.2734 6.56C77.7054 6.56 78.1014 6.596 78.4614 6.668C78.8454 6.716 79.1694 6.8 79.4334 6.92L78.0654 12.5C77.8014 12.38 77.4534 12.272 77.0214 12.176C76.6134 12.056 76.1934 11.996 75.7614 11.996C75.2094 11.996 74.6814 12.104 74.1774 12.32C73.6974 12.512 73.2654 12.8 72.8814 13.184C72.5214 13.544 72.2334 13.976 72.0174 14.48C71.8254 14.984 71.7294 15.548 71.7294 16.172V26H66.5814ZM90.594 26.36C88.53 26.36 86.718 25.94 85.158 25.1C83.622 24.26 82.422 23.108 81.558 21.644C80.718 20.18 80.298 18.512 80.298 16.64C80.298 15.152 80.538 13.796 81.018 12.572C81.498 11.324 82.17 10.256 83.034 9.368C83.898 8.48 84.918 7.796 86.094 7.316C87.294 6.812 88.602 6.56 90.018 6.56C91.314 6.56 92.502 6.8 93.582 7.28C94.686 7.736 95.634 8.396 96.426 9.26C97.242 10.1 97.866 11.096 98.298 12.248C98.73 13.4 98.934 14.66 98.91 16.028L98.874 17.612H83.574L82.746 14.444H94.662L94.05 15.092V14.336C94.002 13.664 93.786 13.076 93.402 12.572C93.042 12.068 92.574 11.672 91.998 11.384C91.422 11.072 90.786 10.916 90.09 10.916C89.01 10.916 88.098 11.132 87.354 11.564C86.634 11.972 86.082 12.572 85.698 13.364C85.338 14.132 85.158 15.092 85.158 16.244C85.158 17.372 85.398 18.368 85.878 19.232C86.358 20.072 87.042 20.72 87.93 21.176C88.842 21.632 89.91 21.86 91.134 21.86C91.974 21.86 92.742 21.728 93.438 21.464C94.134 21.2 94.89 20.744 95.706 20.096L98.118 23.516C97.446 24.116 96.69 24.632 95.85 25.064C95.01 25.496 94.146 25.82 93.258 26.036C92.37 26.252 91.482 26.36 90.594 26.36Z" fill="#1E293B"/>
<path d="M108.003 26.704C106.382 26.704 105.123 26.2347 104.227 25.296C103.331 24.3573 102.883 23.0133 102.883 21.264C102.883 19.6427 103.352 18.32 104.291 17.296C105.23 16.272 106.467 15.76 108.003 15.76C109.667 15.76 110.947 16.2507 111.843 17.232C112.739 18.1707 113.187 19.5147 113.187 21.264C113.187 22.8853 112.696 24.208 111.715 25.232C110.776 26.2133 109.539 26.704 108.003 26.704Z" fill="#FDE047"/>
</svg>
